<svg xmlns="http://www.w3.org/2000/svg" xmlns:svg="http://www.w3.org/2000/svg" id="svg22236" width="950mm" height="300mm" version="1.1" viewBox="0 0 950 300"><defs id="defs22230"><rect id="rect57" width="527.831" height="127.081" x="78.122" y="-160.32"/><clipPath id="clipPath44228-6-0-1" clipPathUnits="userSpaceOnUse"><path style="fill:none;stroke:#000;stroke-width:.26458332px;stroke-linecap:butt;stroke-linejoin:miter;stroke-opacity:1" id="path44230-08-4-4" d="M 6.0476191,0.00520786 16.117141,17.446131 H 48.0266 L 61.210706,-5.389412 H 1.7008928 Z"/></clipPath><clipPath id="clipPath44228-9-7-8-6" clipPathUnits="userSpaceOnUse"><path style="fill:none;stroke:#000;stroke-width:.26458332px;stroke-linecap:butt;stroke-linejoin:miter;stroke-opacity:1" id="path44230-6-0-8-94" d="M 6.0476191,0.00520786 16.117141,17.446131 H 48.0266 L 61.210706,-5.389412 H 1.7008928 Z"/></clipPath><clipPath id="clipPath44228-8-1-7-8-2" clipPathUnits="userSpaceOnUse"><path style="fill:none;stroke:#000;stroke-width:.26458332px;stroke-linecap:butt;stroke-linejoin:miter;stroke-opacity:1" id="path44230-0-0-4-9-26" d="M 6.0476191,0.00520786 16.117141,17.446131 H 48.0266 L 61.210706,-5.389412 H 1.7008928 Z"/></clipPath><clipPath id="clipPath44228-8-2-7-7-4" clipPathUnits="userSpaceOnUse"><path style="fill:none;stroke:#000;stroke-width:.26458332px;stroke-linecap:butt;stroke-linejoin:miter;stroke-opacity:1" id="path44230-0-9-9-7-1" d="M 6.0476191,0.00520786 16.117141,17.446131 H 48.0266 L 61.210706,-5.389412 H 1.7008928 Z"/></clipPath><clipPath id="clipPath44228-8-2-5-6-64-2" clipPathUnits="userSpaceOnUse"><path style="fill:none;stroke:#000;stroke-width:.26458332px;stroke-linecap:butt;stroke-linejoin:miter;stroke-opacity:1" id="path44230-0-9-6-3-30-8" d="M 6.0476191,0.00520786 16.117141,17.446131 H 48.0266 L 61.210706,-5.389412 H 1.7008928 Z"/></clipPath><clipPath id="clipPath44228-6-0-1-1" clipPathUnits="userSpaceOnUse"><path style="fill:none;stroke:#000;stroke-width:.26458332px;stroke-linecap:butt;stroke-linejoin:miter;stroke-opacity:1" id="path44230-08-4-4-7" d="M 6.0476191,0.00520786 16.117141,17.446131 H 48.0266 L 61.210706,-5.389412 H 1.7008928 Z"/></clipPath><clipPath id="clipPath44228-9-7-8-6-4" clipPathUnits="userSpaceOnUse"><path style="fill:none;stroke:#000;stroke-width:.26458332px;stroke-linecap:butt;stroke-linejoin:miter;stroke-opacity:1" id="path44230-6-0-8-94-1" d="M 6.0476191,0.00520786 16.117141,17.446131 H 48.0266 L 61.210706,-5.389412 H 1.7008928 Z"/></clipPath><clipPath id="clipPath44228-8-1-7-8-2-7" clipPathUnits="userSpaceOnUse"><path style="fill:none;stroke:#000;stroke-width:.26458332px;stroke-linecap:butt;stroke-linejoin:miter;stroke-opacity:1" id="path44230-0-0-4-9-26-1" d="M 6.0476191,0.00520786 16.117141,17.446131 H 48.0266 L 61.210706,-5.389412 H 1.7008928 Z"/></clipPath><clipPath id="clipPath44228-8-2-7-7-4-1" clipPathUnits="userSpaceOnUse"><path style="fill:none;stroke:#000;stroke-width:.26458332px;stroke-linecap:butt;stroke-linejoin:miter;stroke-opacity:1" id="path44230-0-9-9-7-1-1" d="M 6.0476191,0.00520786 16.117141,17.446131 H 48.0266 L 61.210706,-5.389412 H 1.7008928 Z"/></clipPath><clipPath id="clipPath44228-8-2-5-6-64-2-7" clipPathUnits="userSpaceOnUse"><path style="fill:none;stroke:#000;stroke-width:.26458332px;stroke-linecap:butt;stroke-linejoin:miter;stroke-opacity:1" id="path44230-0-9-6-3-30-8-0" d="M 6.0476191,0.00520786 16.117141,17.446131 H 48.0266 L 61.210706,-5.389412 H 1.7008928 Z"/></clipPath><symbol id="icon-eye" viewBox="0 0 28 28"><title id="title5132">eye</title><path style="stroke-width:.26458332" id="path5134" d="M 6.8791667,3.96875 C 6.486525,3.3610021 5.9488917,2.8400375 5.3041021,2.5093083 5.4694667,2.7902958 5.55625,3.1128229 5.55625,3.4395833 c 0,1.0210271 -0.8310563,1.8520834 -1.8520833,1.8520834 -1.0210271,0 -1.8520834,-0.8310563 -1.8520834,-1.8520834 0,-0.3264958 0.086783,-0.6490229 0.2521479,-0.930275 C 1.4591771,2.8400375 0.92180833,3.3610021 0.52916667,3.96875 1.2361333,5.0601562 2.3770167,5.8208333 3.7041667,5.8208333 c 1.32715,0 2.4680333,-0.7606771 3.175,-1.8520833 z M 3.9026042,2.38125 c 0,-0.1074208 -0.091017,-0.1984375 -0.1984375,-0.1984375 -0.690298,0 -1.2567709,0.5664729 -1.2567709,1.2567708 0,0.1074209 0.091017,0.1984375 0.1984375,0.1984375 0.1074209,0 0.1984375,-0.091017 0.1984375,-0.1984375 0,-0.4712229 0.3886729,-0.8598958 0.8598959,-0.8598958 0.1074208,0 0.1984375,-0.091017 0.1984375,-0.1984375 z m 3.5057291,1.5875 c 0,0.1034521 -0.033073,0.1984375 -0.082815,0.2852208 C 6.5648417,5.5065083 5.1715458,6.35 3.7041667,6.35 2.2367875,6.35 0.84322708,5.5025396 0.08281458,4.2539708 0.0333375,4.1671875 0,4.0719375 0,3.96875 0,3.8655625 0.03307292,3.7703125 0.08281458,3.6835292 0.84349167,2.4349604 2.2367875,1.5875 3.7041667,1.5875 c 1.4673791,0 2.8609395,0.8474604 3.621352,2.0960292 0.049477,0.086783 0.082815,0.1820333 0.082815,0.2852208 z"/></symbol><symbol id="icon-sitemap" viewBox="0 0 28 28"><title id="title5642">sitemap</title><path style="stroke-width:.26458332" id="path5644" d="m 7.4083333,5.159375 v 1.3229167 c 0,0.219075 -0.1778,0.396875 -0.396875,0.396875 H 5.6885417 c -0.219075,0 -0.396875,-0.1778 -0.396875,-0.396875 V 5.159375 c 0,-0.219075 0.1778,-0.396875 0.396875,-0.396875 h 0.396875 V 3.96875 H 3.96875 V 4.7625 H 4.365625 C 4.5847,4.7625 4.7625,4.9403 4.7625,5.159375 v 1.3229167 c 0,0.219075 -0.1778,0.396875 -0.396875,0.396875 H 3.0427083 c -0.219075,0 -0.396875,-0.1778 -0.396875,-0.396875 V 5.159375 c 0,-0.219075 0.1778,-0.396875 0.396875,-0.396875 h 0.396875 V 3.96875 H 1.3229167 V 4.7625 h 0.396875 c 0.219075,0 0.396875,0.1778 0.396875,0.396875 v 1.3229167 c 0,0.219075 -0.1778,0.396875 -0.396875,0.396875 H 0.396875 C 0.1778,6.8791667 0,6.7013667 0,6.4822917 V 5.159375 C 0,4.9403 0.1778,4.7625 0.396875,4.7625 H 0.79375 V 3.96875 c 0,-0.2894542 0.2397125,-0.5291667 0.5291667,-0.5291667 h 2.1166666 v -0.79375 h -0.396875 c -0.219075,0 -0.396875,-0.1778 -0.396875,-0.396875 V 0.92604167 c 0,-0.219075 0.1778,-0.396875 0.396875,-0.396875 H 4.365625 c 0.219075,0 0.396875,0.1778 0.396875,0.396875 V 2.2489583 c 0,0.219075 -0.1778,0.396875 -0.396875,0.396875 H 3.96875 v 0.79375 h 2.1166667 c 0.2894541,0 0.5291666,0.2397125 0.5291666,0.5291667 V 4.7625 h 0.396875 c 0.219075,0 0.396875,0.1778 0.396875,0.396875 z"/></symbol><clipPath id="clipPath949" clipPathUnits="userSpaceOnUse"><g id="use951"><path id="path1009" d="m 880.15039,-525.64062 -18.5625,35.65039 24.20899,57.95117 44.42968,106.35351 h 10.52735 l 176.48049,-425.41211 h -32.8184 l -148.61522,357.29688 z" transform="matrix(0.08203716,0,0,0.08203716,81.362613,-88.401885)" style="font-style:normal;font-variant:normal;font-weight:300;font-stretch:normal;font-family:'Gill Sans';-inkscape-font-specification:'Gill Sans Light';fill:#1565c0;fill-opacity:1;stroke-width:12.1896"/><path id="path1011" d="m 752.50781,-751.09766 44.42969,106.35352 30.85352,73.85352 18.65429,-35.82422 -60.5,-144.38282 z" transform="matrix(0.08203716,0,0,0.08203716,81.362613,-88.401885)" style="font-style:normal;font-variant:normal;font-weight:300;font-stretch:normal;font-family:'Gill Sans';-inkscape-font-specification:'Gill Sans Light';fill:#757575;fill-opacity:1;stroke-width:12.1896"/></g></clipPath></defs><metadata id="metadata22233"/><g id="layer1" transform="translate(0,3)"><path id="path78" d="m 360.95863,94.135294 h -56.0355 V 196.86703 h 57.24057 v -6.47722 h -49.25702 v -42.02662 h 46.84689 v -6.62785 h -46.84689 v -40.97219 h 48.05195 z" style="font-style:normal;font-variant:normal;font-weight:300;font-stretch:normal;font-size:50.8px;line-height:1.25;font-family:'Gill Sans';-inkscape-font-specification:'Gill Sans Light';letter-spacing:0;word-spacing:0;white-space:pre;fill:#9a9a9a;fill-opacity:1;stroke:none;stroke-width:2.96522"/><path id="path80" d="m 473.18008,94.135294 h -7.98356 V 183.91259 L 387.92177,94.135294 h -7.38102 V 196.86703 h 7.98355 V 106.4872 l 78.02792,90.37983 h 6.62786 z" style="font-style:normal;font-variant:normal;font-weight:300;font-stretch:normal;font-size:50.8px;line-height:1.25;font-family:'Gill Sans';-inkscape-font-specification:'Gill Sans Light';letter-spacing:0;word-spacing:0;white-space:pre;fill:#9a9a9a;fill-opacity:1;stroke:none;stroke-width:2.96522"/><path style="font-style:normal;font-variant:normal;font-weight:300;font-stretch:normal;font-size:50.8px;line-height:1.25;font-family:'Gill Sans';-inkscape-font-specification:'Gill Sans Light';letter-spacing:0;word-spacing:0;white-space:pre;fill:#1565c0;fill-opacity:1;stroke:none;stroke-width:2.96522" id="path82" d="m 516.58214,148.97957 -4.51546,8.67225 5.88901,14.09709 10.80789,25.87135 h 2.56085 l 42.9303,-103.484906 h -7.98334 l -36.15184,86.915326 z"/><path style="font-style:normal;font-variant:normal;font-weight:300;font-stretch:normal;font-size:50.8px;line-height:1.25;font-family:'Gill Sans';-inkscape-font-specification:'Gill Sans Light';letter-spacing:0;word-spacing:0;white-space:pre;fill:#9a9a9a;fill-opacity:1;stroke:none;stroke-width:2.96522" id="path990" d="m 485.53207,94.135354 10.80787,25.871346 7.50538,17.96545 4.53779,-8.71454 -14.71712,-35.122256 z"/><path id="path84" d="m 594.89149,94.135294 h -8.13418 V 196.86703 h 8.13418 z" style="font-style:normal;font-variant:normal;font-weight:300;font-stretch:normal;font-size:50.8px;line-height:1.25;font-family:'Gill Sans';-inkscape-font-specification:'Gill Sans Light';letter-spacing:0;word-spacing:0;white-space:pre;fill:#9a9a9a;fill-opacity:1;stroke:none;stroke-width:2.96522"/><path id="path86" d="m 698.37622,94.135294 h -86.61401 v 6.477226 h 73.65956 l -77.12412,93.99502 v 2.25949 h 90.6811 v -6.47722 h -77.57602 l 76.97349,-93.543121 z" style="font-style:normal;font-variant:normal;font-weight:300;font-stretch:normal;font-size:50.8px;line-height:1.25;font-family:'Gill Sans';-inkscape-font-specification:'Gill Sans Light';letter-spacing:0;word-spacing:0;white-space:pre;fill:#9a9a9a;fill-opacity:1;stroke:none;stroke-width:2.96522"/><path id="path88" d="m 812.70635,145.04926 c 0,-27.71648 -21.69116,-52.269663 -54.37854,-52.269663 -32.98863,0 -54.52916,24.703823 -54.52916,52.570933 0,29.52408 23.64939,52.8722 54.37853,52.8722 29.82535,0 54.52917,-22.29369 54.52917,-53.17347 z m -8.88735,0 c 0,28.01775 -22.14306,45.64182 -45.79245,45.64182 -26.36078,0 -45.18992,-20.78736 -45.18992,-45.03928 0,-25.15572 19.43167,-45.18992 45.64182,-45.18992 26.81268,0 45.34055,21.08863 45.34055,44.58738 z" style="font-style:normal;font-variant:normal;font-weight:300;font-stretch:normal;font-size:50.8px;line-height:1.25;font-family:'Gill Sans';-inkscape-font-specification:'Gill Sans Light';letter-spacing:0;word-spacing:0;white-space:pre;fill:#9a9a9a;fill-opacity:1;stroke:none;stroke-width:2.96522"/><path id="path90" d="m 923.12034,94.135294 h -7.98355 V 183.91259 L 837.86204,94.135294 h -7.38102 V 196.86703 h 7.98355 V 106.4872 l 78.02792,90.37983 h 6.62785 z" style="font-style:normal;font-variant:normal;font-weight:300;font-stretch:normal;font-size:50.8px;line-height:1.25;font-family:'Gill Sans';-inkscape-font-specification:'Gill Sans Light';letter-spacing:0;word-spacing:0;white-space:pre;fill:#9a9a9a;fill-opacity:1;stroke:none;stroke-width:2.96522"/><path id="path21890-8" d="m 93.580078,45.4375 c -18.897786,32.734375 -37.795573,65.46875 -56.693359,98.20312 18.897786,32.73503 37.795573,65.47006 56.693359,98.20508 37.800782,0 75.601562,0 113.402342,0 18.89844,-32.73502 37.79688,-65.47005 56.69531,-98.20508 -18.89778,-32.73502 -37.79557,-65.470047 -56.69335,-98.205073 -37.80144,6.51e-4 -75.60287,0.0013 -113.404302,0.002 z m 5.226563,8.513672 c 34.417969,6.37e-4 68.835939,0.0013 103.253909,0.002 17.26442,29.895671 34.52567,59.793185 51.78906,89.689455 -17.26275,29.89626 -34.52333,59.79379 -51.78711,89.68945 -34.52018,6.4e-4 -69.04036,0.001 -103.560547,0.002 -17.264431,-29.89631 -34.525662,-59.79449 -51.789062,-89.6914 17.2634,-29.89692 34.524631,-59.795089 51.789062,-89.691408 0.101563,0 0.203125,0 0.304688,0 z" style="color:#000;font-style:normal;font-variant:normal;font-weight:400;font-stretch:normal;font-size:medium;line-height:normal;font-family:sans-serif;font-variant-ligatures:normal;font-variant-position:normal;font-variant-caps:normal;font-variant-numeric:normal;font-variant-alternates:normal;font-feature-settings:normal;text-indent:0;text-align:start;text-decoration:none;text-decoration-line:none;text-decoration-style:solid;text-decoration-color:#000;letter-spacing:normal;word-spacing:normal;text-transform:none;writing-mode:lr-tb;direction:ltr;text-orientation:mixed;dominant-baseline:auto;baseline-shift:baseline;text-anchor:start;white-space:normal;shape-padding:0;clip-rule:nonzero;display:inline;overflow:visible;visibility:visible;opacity:1;isolation:auto;mix-blend-mode:normal;color-interpolation:sRGB;color-interpolation-filters:linearRGB;solid-color:#000;solid-opacity:1;vector-effect:none;fill:#1565c0;fill-opacity:1;fill-rule:nonzero;stroke:none;stroke-width:4.548;stroke-linecap:square;stroke-linejoin:miter;stroke-miterlimit:4;stroke-dasharray:none;stroke-dashoffset:0;stroke-opacity:1;paint-order:normal;color-rendering:auto;image-rendering:auto;shape-rendering:auto;text-rendering:auto;enable-background:accumulate"/><flowRoot id="flowRoot20365" xml:space="preserve" style="font-style:normal;font-variant:normal;font-weight:400;font-stretch:normal;font-size:12px;line-height:1.3;font-family:Cabin;-inkscape-font-specification:Cabin;text-align:center;letter-spacing:0;word-spacing:0;text-anchor:middle;fill:#000;fill-opacity:1;stroke:none"><flowRegion id="flowRegion20367"><rect id="rect20369" width="2775" height="1368.75" x="1087.5" y="108.858"/></flowRegion><flowPara id="flowPara20371"/></flowRoot><path id="path21890-8-8" d="m 150.89329,101.70132 -36.36225,20.99384 2e-5,41.98769 36.36222,20.99384 36.36224,-20.99384 1e-5,-1.33344 v -40.65424 z m -1e-5,5.33636 31.7421,18.32566 -2e-5,36.65132 -31.742,18.3271 -31.74217,-18.32581 -1e-5,-36.65263 z" style="color:#000;font-style:normal;font-variant:normal;font-weight:400;font-stretch:normal;font-size:medium;line-height:normal;font-family:sans-serif;font-variant-ligatures:normal;font-variant-position:normal;font-variant-caps:normal;font-variant-numeric:normal;font-variant-alternates:normal;font-feature-settings:normal;text-indent:0;text-align:start;text-decoration:none;text-decoration-line:none;text-decoration-style:solid;text-decoration-color:#000;letter-spacing:normal;word-spacing:normal;text-transform:none;writing-mode:lr-tb;direction:ltr;text-orientation:mixed;dominant-baseline:auto;baseline-shift:baseline;text-anchor:start;white-space:normal;shape-padding:0;clip-rule:nonzero;display:inline;overflow:visible;visibility:visible;opacity:1;isolation:auto;mix-blend-mode:normal;color-interpolation:sRGB;color-interpolation-filters:linearRGB;solid-color:#000;solid-opacity:1;vector-effect:none;fill:#1565c0;fill-opacity:1;fill-rule:nonzero;stroke:none;stroke-width:1.64845;stroke-linecap:square;stroke-linejoin:miter;stroke-miterlimit:4;stroke-dasharray:none;stroke-dashoffset:0;stroke-opacity:1;paint-order:normal;color-rendering:auto;image-rendering:auto;shape-rendering:auto;text-rendering:auto;enable-background:accumulate"/></g></svg>